<?xml version="1.0" standalone="no"?>
<!DOCTYPE svg PUBLIC "-//W3C//DTD SVG 20010904//EN"
 "http://www.w3.org/TR/2001/REC-SVG-20010904/DTD/svg10.dtd">
<svg version="1.0" xmlns="http://www.w3.org/2000/svg"
 width="1030.000000pt" height="1030.000000pt" viewBox="0 0 1030.000000 1030.000000"
 preserveAspectRatio="xMidYMid meet">
<metadata>
Created by potrace 1.14, written by Peter Selinger 2001-2017
</metadata>
<g transform="translate(0.000000,1030.000000) scale(0.100000,-0.100000)"
fill="#000000" stroke="none">
<path d="M2485 10263 c-738 -27 -1190 -169 -1622 -510 -108 -85 -285 -268
-370 -383 -276 -373 -402 -742 -455 -1330 -19 -212 -19 -5568 0 -5780 40 -442
110 -720 258 -1010 179 -353 449 -648 785 -857 319 -199 674 -303 1179 -345
226 -19 5534 -19 5760 0 611 51 1009 193 1397 499 109 86 286 269 369 383 282
383 407 752 456 1340 19 226 19 5534 0 5760 -49 586 -177 965 -455 1340 -187
252 -454 475 -747 624 -284 145 -556 215 -990 257 -94 9 -792 13 -2805 14
-1474 1 -2716 0 -2760 -2z m3660 -1928 c582 -45 1238 -185 1693 -362 121 -48
122 -48 139 -91 16 -42 15 -48 -10 -165 -52 -239 -98 -565 -137 -957 -11 -113
-22 -224 -25 -247 l-6 -43 -174 0 -173 0 -6 73 c-3 39 -8 135 -11 212 -6 152
-18 278 -37 394 -12 74 -13 75 -88 151 -215 217 -683 431 -1092 499 -324 54
-722 60 -1021 16 -539 -81 -958 -290 -1312 -656 -350 -361 -554 -815 -631
-1399 -22 -171 -30 -599 -14 -798 59 -770 313 -1367 774 -1827 368 -367 779
-576 1281 -651 161 -24 499 -24 675 0 228 31 456 91 676 178 l101 40 6 71 c4
40 12 259 18 488 12 419 4 691 -21 781 -15 53 -57 84 -141 103 -116 26 -395
55 -699 73 l-115 7 -3 175 -2 175 1320 0 1320 0 0 -141 0 -141 -84 -22 c-163
-43 -255 -104 -276 -182 -20 -74 -29 -256 -36 -704 -6 -369 -4 -463 11 -659
15 -187 16 -229 5 -236 -30 -18 -719 -242 -892 -289 -607 -166 -1050 -234
-1628 -248 -653 -15 -1239 82 -1770 295 -731 293 -1318 854 -1610 1537 -205
478 -293 997 -269 1588 20 484 112 862 303 1247 199 399 485 738 861 1020 159
119 293 201 487 297 498 248 1015 375 1678 413 203 11 695 4 935 -15z"/>
</g>
</svg>
